<?xml version="1.0" encoding="UTF-8"?>
<svg xmlns="http://www.w3.org/2000/svg" width="128" height="128" viewBox="0 0 128 128">
  <defs>
    <linearGradient id="background" x1="0" y1="0" x2="0" y2="1">
      <stop offset="0" stop-color="#62a0ea"/>
      <stop offset="1" stop-color="#1c71d8"/>
    </linearGradient>
  </defs>
  <rect x="8" y="8" width="112" height="112" rx="24" fill="url(#background)"/>
  <path d="M39 99h56l-4-13H44zm8-18h41c1-18-6-35-23-44l4-12c-12 2-23 9-29 20l10 7c-8 6-13 17-13 29zm9-34c0-3 2-5 5-5s5 2 5 5-2 5-5 5-5-2-5-5z" fill="#fff"/>
  <path d="M44 86h47" fill="none" stroke="#c0d8f8" stroke-width="4" stroke-linecap="round"/>
</svg>
